<?xml version="1.0" encoding="utf-8"?>
<!-- Generator: Adobe Illustrator 24.0.1, SVG Export Plug-In . SVG Version: 6.00 Build 0)  -->
<svg version="1.1" id="Layer_1" xmlns="http://www.w3.org/2000/svg" xmlns:xlink="http://www.w3.org/1999/xlink" x="0px" y="0px"
	 viewBox="0 0 595.28 841.89" style="enable-background:new 0 0 595.28 841.89;" xml:space="preserve">
<style type="text/css">
	.st0{fill:#E9E4E3;}
	.st1{fill:#95817B;}
</style>
<path class="st0" d="M119.75,400.85c0,6.65,5.32,12.04,11.88,12.04h344.05c6.56,0,11.88-5.39,11.88-12.04v-64.96
	c0-6.65-5.32-12.04-11.88-12.04H131.63c-6.56,0-11.88,5.39-11.88,12.04V400.85z"/>
<g>
	<path class="st1" d="M452.41,343.87v48.8c0,7.13-0.46,9.71-4,10.86c-1.26-0.85-2.57-1.97-3.93-3.54
		c-3.05-3.17-5.49-6.34-9.88-12.69c-3.66-5.49-8.78-13.66-10.86-17.57c8.91-4.03,15.49-10.49,15.49-20.98
		c0-7.32-3.17-12.81-8.17-15.98c-0.17-0.12-0.35-0.22-0.52-0.33l15.04,0C451.7,333.26,452.41,335.17,452.41,343.87z"/>
	<path class="st1" d="M391.9,343.74v48.92c0,7.97-0.6,10.24-5.4,11.2l-5.26,0c-4.73-0.94-5.32-3.18-5.32-11.2v-48.8
		c0-8.69,0.7-10.61,6.81-11.43h2.48C391.19,333.24,391.9,334.87,391.9,343.74z"/>
	<path class="st1" d="M288.03,403.87c-4.74-0.94-5.33-3.18-5.33-11.2v-48.8c0-8.69,0.71-10.61,6.82-11.43h2.62
		c5.85,0.82,6.54,2.76,6.54,12.04v47.7c0,8.31-0.6,10.69-5.16,11.69H288.03z"/>
	<path class="st1" d="M201.16,403.87c-4.73-0.94-5.32-3.18-5.32-11.2l0-48.8c0-8.69,0.71-10.61,6.82-11.44h2.49
		c5.98,0.81,6.68,2.44,6.68,11.31l0,48.92c0,7.97-0.6,10.24-5.41,11.2H201.16z"/>
	<path class="st1" d="M178.72,332.44c6.05,0.83,6.75,2.76,6.75,11.42l0,48.8c0,7.75-0.55,10.12-5,11.12
		c-3.45-0.95-6.03-2.87-10.87-8.07c-6.1-6.59-19.52-21.59-28.67-33.18c8.17-8.3,16.84-17.08,21.59-21.35
		C169.12,335.12,172.22,333.36,178.72,332.44z"/>
	<path class="st1" d="M272.33,343.87l0,48.8c0,7.13-0.46,9.71-4,10.86c-1.26-0.85-2.57-1.97-3.92-3.53
		c-3.05-3.17-5.49-6.34-9.88-12.69c-3.66-5.49-8.78-13.66-10.86-17.57c8.91-4.03,15.49-10.49,15.49-20.98
		c0-7.32-3.17-12.81-8.17-15.98c-0.17-0.12-0.35-0.22-0.53-0.33h15.04C271.63,333.26,272.33,335.17,272.33,343.87z"/>
	<path class="st1" d="M241.1,365.83c-3.05,2.56-7.08,3.54-13.17,3.54h-5.86l0-30.13c0-3.29,0.37-4.76,1.34-5.37
		c0.98-0.73,3.05-1.22,6.59-1.22c9.15,0,17.81,4.88,17.81,18.06C247.81,357.41,245.86,362.17,241.1,365.83z"/>
	<path class="st1" d="M222.07,392.67l0-19.4h3.9c6.22,0,8.29,1.46,10.37,4.88c3.66,5.98,8.05,13.54,12.32,19.52
		c1.8,2.59,3.54,4.62,5.4,6.2h-26.59C222.74,402.89,222.07,400.58,222.07,392.67z"/>
	<path class="st1" d="M336.16,332.43c5.22,0.62,5.29,1.87,1.69,6.19c-5.49,6.71-13.67,15.25-20.38,21.72
		c-3.42,3.17-5.86,4.88-8.54,5.49v-21.35c0-9.13,0.86-11.19,6.73-12.04H336.16z"/>
	<path class="st1" d="M365.54,343.87l0,48.8c0,7.75-0.55,10.11-5,11.12c-3.44-0.95-6.03-2.87-10.86-8.07
		c-6.1-6.59-19.52-21.59-28.67-33.18c8.17-8.3,16.84-17.08,21.59-21.35c6.58-6.06,9.69-7.82,16.19-8.74
		C364.84,333.27,365.54,335.21,365.54,343.87z"/>
	<path class="st1" d="M308.93,392.18v-23.06c2.07-0.37,3.66,0,6.59,3.29c9.5,11.31,18.25,21.88,26.66,31.45l-27.62,0
		C309.6,402.87,308.93,400.48,308.93,392.18z"/>
	<path class="st1" d="M402.14,339.23c0-3.29,0.37-4.76,1.34-5.37c0.98-0.73,3.05-1.22,6.59-1.22c9.15,0,17.81,4.88,17.81,18.06
		c0,6.71-1.95,11.47-6.71,15.13c-3.05,2.56-7.08,3.54-13.18,3.54h-5.86V339.23z"/>
	<path class="st1" d="M156.08,332.43c5.22,0.62,5.29,1.87,1.69,6.19c-5.49,6.71-13.66,15.25-20.38,21.72
		c-3.42,3.17-5.86,4.88-8.54,5.49l0-21.35c0-9.13,0.86-11.19,6.73-12.05H156.08z"/>
	<path class="st1" d="M128.86,392.18v-23.06c2.07-0.37,3.66,0,6.59,3.29c9.5,11.31,18.25,21.88,26.66,31.45h-27.62
		C129.52,402.87,128.86,400.47,128.86,392.18z"/>
	<path class="st1" d="M407.56,403.87c-4.74-0.98-5.41-3.28-5.41-11.2v-19.4h3.9c6.22,0,8.3,1.46,10.37,4.88
		c3.66,5.98,8.05,13.54,12.32,19.52c1.8,2.6,3.55,4.62,5.41,6.2H407.56z"/>
</g>
<path class="st1" d="M466.58,404.08c-4.73-0.94-5.32-3.18-5.32-11.2l0-48.8c0-8.69,0.71-10.61,6.82-11.44h2.49
	c5.98,0.81,6.68,2.44,6.68,11.31l0,48.92c0,7.97-0.6,10.24-5.41,11.2H466.58z"/>
</svg>
